<svg id="Layer_1" data-name="Layer 1" xmlns="http://www.w3.org/2000/svg" viewBox="0 0 1080 327"><defs><style>.cls-1{fill:#00a0df;}.cls-2{fill:#60269e;}</style></defs><path class="cls-1" d="M186.13,244.61a50.57,50.57,0,0,1-50.51-50.51V129.77a7.66,7.66,0,0,1,15.31,0V194.1a35.2,35.2,0,0,0,70.4,0V129.77a7.66,7.66,0,0,1,15.31,0V194.1A50.57,50.57,0,0,1,186.13,244.61Z"/><path class="cls-1" d="M1001.79,81.63a64.44,64.44,0,0,1-64.37-64.36,5.45,5.45,0,1,1,10.89,0,53.54,53.54,0,0,0,53.48,53.48,5.44,5.44,0,1,1,0,10.88Z"/><path class="cls-1" d="M942.86,140.56a5.44,5.44,0,0,1-5.44-5.44,64.44,64.44,0,0,1,64.37-64.37,5.44,5.44,0,1,1,0,10.88,53.55,53.55,0,0,0-53.48,53.49A5.44,5.44,0,0,1,942.86,140.56Z"/><path class="cls-1" d="M389.24,244.61a24.36,24.36,0,0,1-24.33-24.33V96.42a7.66,7.66,0,1,1,15.31,0V220.28a9,9,0,0,0,9,9,7.66,7.66,0,1,1,0,15.31Z"/><path class="cls-1" d="M80.42,298.18a7.66,7.66,0,0,1,0-15.31,19.16,19.16,0,0,0,19.13-19.13v-134a7.66,7.66,0,0,1,15.31,0v134A34.48,34.48,0,0,1,80.42,298.18Z"/><path class="cls-2" d="M889.28,244.61a7.66,7.66,0,0,1-7.65-7.66V172.63a35.2,35.2,0,0,0-70.4,0V237a7.66,7.66,0,1,1-15.31,0V172.63a50.51,50.51,0,0,1,101,0V237A7.66,7.66,0,0,1,889.28,244.61Z"/><path class="cls-2" d="M548.63,244.61a24.37,24.37,0,0,1-24.34-24.33V76.19a7.66,7.66,0,0,1,15.31,0V220.28a9,9,0,0,0,9,9,7.66,7.66,0,0,1,0,15.31Z"/><circle class="cls-1" cx="107.2" cy="96.42" r="10.42"/><path class="cls-1" d="M402.24,137.41H354a7.65,7.65,0,1,1,0-15.3h48.22a7.65,7.65,0,0,1,0,15.3Z"/><path class="cls-1" d="M293.42,244.61a50,50,0,0,1-36.62-15.73,7.65,7.65,0,1,1,11.1-10.54,34.89,34.89,0,0,0,25.52,11h.52a35.15,35.15,0,0,0,12.65-2.54,34.58,34.58,0,0,0,5.15-2.61,16.2,16.2,0,0,0,7.25-12.8,14,14,0,0,0-4.94-12,33.34,33.34,0,0,0-9.31-4.67c-4.74-1.72-9.56-3.12-14.67-4.6l-5.9-1.73c-6-1.81-12.34-3.93-17.84-8.23a31.09,31.09,0,0,1,2.81-50.56,50.88,50.88,0,0,1,7.44-3.76,50.53,50.53,0,0,1,55.52,12.07A7.66,7.66,0,0,1,321,148.4a35,35,0,0,0-43.84-5.82A15.79,15.79,0,0,0,275.75,168c3.42,2.66,8,4.18,12.82,5.62,1.92.58,3.84,1.14,5.77,1.7,5.11,1.48,10.4,3,15.61,4.9a46.74,46.74,0,0,1,13.65,7.11,29,29,0,0,1,10.67,24.91,31.32,31.32,0,0,1-14.5,24.91A50.06,50.06,0,0,1,294,244.61Z"/><path class="cls-2" d="M467.64,244.61h0c-21.59,0-41.61-14.31-47.61-34-2.25-7.38-2.81-15-3.08-22.12-.63-16.64.32-33.93,11.52-47.7a51,51,0,0,1,39.17-18.67h.06a50,50,0,0,1,36.58,15.72,7.66,7.66,0,1,1-11.1,10.55,34.85,34.85,0,0,0-25.51-11,35.53,35.53,0,0,0-27.32,13c-7.55,9.29-8.7,21.69-8.1,37.45.27,7,.78,12.85,2.43,18.25,4,13.19,18.2,23.14,33,23.15a34.93,34.93,0,0,0,25.51-11,7.65,7.65,0,1,1,11.1,10.54,50,50,0,0,1-36.58,15.73Z"/><path class="cls-1" d="M942.86,140.56a5.44,5.44,0,0,1-5.44-5.44,53.55,53.55,0,0,0-53.48-53.49,5.44,5.44,0,0,1,0-10.88,64.44,64.44,0,0,1,64.37,64.37A5.44,5.44,0,0,1,942.86,140.56Z"/><path class="cls-2" d="M883.94,81.63a5.44,5.44,0,0,1,0-10.88,53.54,53.54,0,0,0,53.48-53.48,5.45,5.45,0,1,1,10.89,0A64.44,64.44,0,0,1,883.94,81.63Z"/><path class="cls-2" d="M647.13,190.89h-75a7.65,7.65,0,0,1-7.66-7.65V174c0-28.13,22.24-51.42,49.57-51.92a50.51,50.51,0,0,1,51.45,50.5A18.35,18.35,0,0,1,647.13,190.89Zm-67.38-15.3h67.38a3,3,0,0,0,3-3,34.93,34.93,0,0,0-10.54-25.12,34.42,34.42,0,0,0-25.32-10.07c-19,.34-34.54,16.77-34.54,36.61Z"/><path class="cls-2" d="M711.73,244.67c-1.24,0-2.44,0-3.61-.11h0c-8.57-.56-15.78-3.22-21.44-7.89a34.35,34.35,0,0,1-7.17-44.89c6.47-10.14,18-16.19,30.81-16.19H767.5a7.65,7.65,0,0,1,7.65,7.65,61.34,61.34,0,0,1-8.1,30.48c-10.17,17.72-28.23,28.91-49.54,30.7C715.53,244.59,713.59,244.67,711.73,244.67Zm-2.62-15.39a47.68,47.68,0,0,0,7.11-.12c16.24-1.36,29.92-9.77,37.55-23.06a45.81,45.81,0,0,0,5.44-15.21H710.32c-7.45,0-14.31,3.5-17.9,9.12-5.85,9.17-2.3,19.65,4,24.86,3.18,2.62,7.33,4.06,12.69,4.41Z"/><path class="cls-2" d="M615,244.55a50.65,50.65,0,0,1-46.64-31.68c-3.9-9.74-3.88-19.06-3.87-28.07v-1.56a7.66,7.66,0,0,1,15.31,0v1.58c0,8.25,0,15.38,2.77,22.38a35,35,0,0,0,60.39,8.22,7.66,7.66,0,1,1,12.16,9.31A50.19,50.19,0,0,1,615,244.55Z"/><path class="cls-2" d="M767.49,244.67a7.66,7.66,0,0,1-7.65-7.66V181.78c0-8.25,0-15.37-2.77-22.37a35,35,0,0,0-60.39-8.22,7.66,7.66,0,0,1-12.16-9.31,50.33,50.33,0,0,1,86.77,11.85c3.89,9.75,3.87,19.06,3.86,28.07V237A7.66,7.66,0,0,1,767.49,244.67Z"/></svg>