<svg xmlns="http://www.w3.org/2000/svg" width="31" height="22" viewBox="0 0 31 22">
    <g fill="none">
        <path fill="#E6E7E8" d="M19.427 17.293h4.749c.476 0 .863-.387.863-.864V.888c0-.477-.387-.864-.863-.864H.863C.386.024 0 .411 0 .888v15.541c0 .477.386.864.863.864h18.564z" transform="matrix(-1 0 0 1 28 2.2)"/>
        <path fill="#C03A2B" d="M19.93 4.557l-3.023 1.511L19.93 7.58 16.907 9.09l3.022 1.511-3.022 1.511 3.022 1.511-3.022 1.511 3.022 1.511-1.295.648H.864C.386 17.29 0 16.906 0 16.429V.888C.001.41.387.026.863.024h16.044l3.022 1.512-3.022 1.51 3.022 1.511z" transform="matrix(-1 0 0 1 28 2.2)"/>
    </g>
</svg>
