<svg xmlns="http://www.w3.org/2000/svg" width="31" height="22" viewBox="0 0 31 22">
    <g fill="none">
        <path fill="#4C8056" d="M24.275 17.206H1.965C.88 17.206 0 16.326 0 15.241V1.979C0 .894.88.014 1.965.014h22.31c1.086 0 1.966.88 1.966 1.965v13.262c0 1.085-.88 1.965-1.966 1.965z" transform="translate(2 2)"/>
        <g fill="#F5F5F5">
            <path d="M.253 2.27c.045.285.218.375.368.363.177-.014.332-.176.332-.347v-.98c0-.05.04-.09.09-.09.049 0 .089.04.089.09v.985c0 .118.058.228.156.295.06.04.13.061.2.061.045 0 .09-.008.133-.025l.089-.036c.008.823-.042 1.547-.043 1.56-.007.098.067.184.165.19l.013.001c.093 0 .171-.072.178-.165.004-.058.059-.85.042-1.728l.054-.022c.048-.019.1-.016.146.006.197.098.433.06.588-.095l.032-.032c.144-.145.194-.354.13-.548l-.152-.455c.082.024.172-.012.212-.091.044-.088.008-.195-.08-.24L2.638.79c-.064-.032-.142-.022-.196.025-.055.047-.076.123-.053.191l.287.861c.022.064.005.134-.043.183l-.032.032c-.046.046-.117.057-.176.028-.116-.058-.248-.068-.371-.037C2.029 1.5 1.967.93 1.836.536 1.805.442 1.704.392 1.61.423c-.093.03-.144.132-.113.225.129.386.185.973.205 1.557l-.214.085v-.985c0-.246-.2-.446-.446-.446-.245 0-.445.2-.445.446v.864L.415 1.27c-.02-.097-.114-.16-.21-.14-.097.02-.16.114-.14.21l.188.93zM.597.77C.695.77.775.69.775.592V.414C.775.315.695.235.597.235c-.099 0-.179.08-.179.179v.178c0 .099.08.178.179.178zM2.38.592h.178c.099 0 .179-.08.179-.178 0-.099-.08-.179-.179-.179H2.38c-.099 0-.178.08-.178.179 0 .098.08.178.178.178z" transform="translate(2 2) translate(5.176 3.588)"/>
            <path d="M1.218 2.936l-.892.535c-.084.05-.111.16-.06.245.033.056.092.086.152.086.032 0 .063-.008.092-.025l.892-.535c.084-.05.112-.16.06-.245-.05-.084-.16-.112-.244-.061z" transform="translate(2 2) translate(5.176 3.588)"/>
            <path d="M3.622 3.251l.005-.002c.015.06.04.118.082.167.072.086.181.128.304.118.174-.012.293-.092.37-.195.013.008.025.016.039.023.096.048.207.044.314-.01.27-.14.327-.46.319-.628-.005-.098-.088-.167-.186-.17-.098.005-.174.088-.17.186 0 .002.004.214-.126.292-.02-.03-.046-.095-.055-.15-.015-.092-.1-.156-.19-.148-.093.007-.164.085-.165.177 0 .026-.005.255-.182.274-.02-.028-.021-.146 0-.233.016-.072-.012-.146-.073-.188-.06-.042-.14-.042-.202 0l-.099.067C3.56 1.797 3.451.59 3.449.576c-.008-.098-.095-.17-.193-.161-.098.008-.17.095-.162.193.002.017.128 1.411.167 2.476l-.028.027c-.07-.178-.21-.29-.39-.307-.254-.023-.53.15-.628.397-.085.213-.032.422.136.532.12.08.303.105.532.024-.056.197-.158.396-.29.55-.119.138-.317.298-.57.29-.147-.005-.26-.053-.346-.147-.207-.226-.19-.634-.189-.638.005-.098-.07-.182-.168-.188-.099-.01-.183.07-.188.169-.001.022-.027.559.28.896.151.166.352.255.597.265h.036c.298 0 .588-.146.818-.414.217-.253.364-.596.409-.914-.001.61-.369 1.298-.856 1.6-.207.13-.53.245-.893.066-.449-.221-.395-.733-.393-.754.012-.098-.057-.187-.155-.2-.097-.011-.187.058-.199.156-.004.032-.09.783.589 1.118.174.086.356.129.54.129.236 0 .474-.07.7-.211.593-.37 1.023-1.17 1.023-1.906 0-.115-.002-.24-.006-.373zm-1.075.184c-.032-.02-.007-.088-.001-.102.037-.094.155-.175.248-.175h.015c.023.003.083.009.11.143l.006.044c-.199.117-.332.12-.378.09zM.687 5.076c-.085-.05-.194-.022-.244.063-.008.014-.02.029-.03.042l-.006-.015c-.075-.198-.022-.504.005-.605.025-.095-.031-.192-.126-.218-.095-.024-.193.031-.218.126-.013.049-.123.482.005.823.082.218.207.273.298.28l.024.001c.192 0 .32-.193.356-.255.049-.084.02-.193-.064-.242z" transform="translate(2 2) translate(5.176 3.588)"/>
            <path d="M3.978 1.84c.038 0 .077-.012.11-.038l.899-.706c.012-.01.02-.022.03-.034.129-.078.216-.219.216-.38 0-.247-.2-.447-.446-.447-.245 0-.445.2-.445.446 0 .138.064.26.162.341l-.637.5c-.077.06-.09.173-.03.25.035.045.088.068.14.068zm.81-1.248c.049 0 .089.04.089.09 0 .048-.04.088-.09.088-.049 0-.089-.04-.089-.089 0-.049.04-.089.09-.089zM4.576 1.671c-.093-.03-.194.02-.225.113-.02.057-.106.351.07.526.067.068.156.102.266.102.073 0 .155-.015.246-.046.094-.03.144-.132.113-.225-.031-.094-.132-.144-.226-.113-.1.033-.142.028-.145.031-.01-.026-.004-.106.014-.163.031-.093-.02-.194-.113-.225zM6.618.934c.016.005.033.007.05.007.077 0 .148-.05.17-.128l.105-.357C6.97.362 6.916.263 6.822.235 6.727.208 6.628.262 6.6.356l-.104.357c-.027.095.027.194.122.221zM5.578.913c.028.017.06.025.09.025.061 0 .12-.032.154-.089.05-.085.021-.194-.064-.244-.036-.02-.03-.08-.03-.091.006-.047.034-.104.082-.12.094-.029.147-.129.118-.223-.03-.094-.13-.146-.224-.117-.178.055-.307.22-.33.42-.021.185.057.353.204.44zM4.163 3.802c-.098 0-.178.08-.178.179 0 .087.062.16.145.175.01.014.033.06.033.181 0 .099.08.179.179.179.098 0 .178-.08.178-.179 0-.529-.342-.535-.357-.535zM7.189 3.064c.022.003.045.005.067.005.14 0 .282-.07.422-.21.07-.07.07-.183 0-.253s-.183-.07-.252 0c-.107.107-.164.11-.179.106-.034-.005-.065-.05-.072-.062-.044-.086-.15-.121-.238-.077s-.124.15-.08.239c.011.022.114.216.332.252zM10.22 1.81l-.003-.007c-.031-.093-.132-.143-.225-.112-.093.031-.144.132-.113.226.014.042.094.251.29.278l.04.002c.123 0 .24-.08.345-.238.054-.082.032-.192-.05-.247-.082-.055-.193-.033-.247.05-.014.02-.026.037-.037.048z" transform="translate(2 2) translate(5.176 3.588)"/>
            <path d="M9.87 5.05c0-.76-.033-1.473-.08-2.098.254.439.482.882.627 1.27.027.071.094.115.167.115.02 0 .042-.003.062-.011.093-.035.14-.137.105-.23-.226-.602-.632-1.318-1.032-1.954C9.622 1.18 9.513.57 9.511.56 9.493.463 9.4.398 9.303.417c-.097.017-.16.11-.143.207.001.008.057.322.125.85-.138-.203-.265-.386-.372-.537l.01.002c.093.032.194-.019.225-.112.03-.094-.02-.195-.113-.226L8.5.423c-.074-.025-.156.001-.201.065-.012.017-.02.035-.026.054C8.166.463 8.029.4 7.9.453c-.078.032-.17.113-.17.317 0 .157.059.326.122.506.105.297.17.516.06.62-.062.058-.123.08-.183.064-.11-.027-.219-.174-.291-.391-.004-.01-.01-.017-.015-.025.038-.276.022-.61-.054-.987-.02-.097-.113-.16-.21-.14-.097.02-.16.113-.14.21.117.582.082 1.058-.093 1.271-.068.083-.153.12-.267.12-.036 0-.06-.01-.085-.039-.141-.162-.14-.685-.095-1.005.007-.051-.008-.103-.042-.142C6.404.792 6.355.77 6.303.77c-.306 0-.423.35-.526.657-.045.136-.128.387-.187.413-.108 0-.178-.317-.178-.535 0-.098-.08-.178-.179-.178-.098 0-.178.08-.178.178 0 .412.14.892.535.892.294 0 .413-.32.513-.618.017.237.07.482.202.634.093.106.215.162.355.162.22 0 .408-.086.543-.25.024-.03.045-.065.066-.1.103.148.23.245.373.281.042.01.085.016.126.016.138 0 .273-.057.389-.166.024-.022.041-.047.06-.072.043.013.087.02.131.02.145 0 .284-.058.37-.114.083-.052.106-.162.054-.245-.052-.082-.162-.107-.245-.055-.002 0-.121.069-.202.053 0-.196-.07-.403-.135-.586-.037-.104-.075-.211-.093-.298.015.012.03.025.042.037.07.07.183.07.252 0 .012-.011.019-.025.026-.039.185.255.565.79.956 1.407.075.758.14 1.726.14 2.787 0 .098.08.178.179.178.098 0 .178-.08.178-.178zM10.049 1.127c0 .099.08.178.178.178.099 0 .178-.08.178-.178 0-.21-.164-.549-.197-.615-.044-.088-.15-.123-.24-.08-.087.045-.123.152-.079.24.064.129.16.362.16.455zM9.237 5.07c-.087-.044-.195-.009-.24.079-.018.037-.048.079-.073.106-.008-.071.01-.213.047-.33.024-.079-.009-.163-.079-.205-.07-.043-.16-.032-.218.026l-.356.357c-.07.07-.07.182 0 .252s.182.07.252 0l.009-.009c.015.072.045.137.095.187.067.067.148.103.232.103.016 0 .033-.002.049-.004.202-.033.328-.256.361-.323.044-.088.009-.195-.079-.239z" transform="translate(2 2) translate(5.176 3.588)"/>
            <path d="M9.168 3.635H7.911l.034-.127c.502-.104.8-.266.887-.482.03-.075.062-.226-.067-.4-.116-.157-.28-.227-.45-.192-.254.051-.48.324-.642.761-.503.087-.826.267-1.03.446-.072-.731-.356-1.165-.37-1.186-.054-.082-.165-.104-.247-.05-.082.055-.104.166-.05.248.004.005.327.5.327 1.328 0 .814-.649 1.426-1.07 1.426-.2 0-.288-.238-.326-.439.412-.289.776-.623.856-.944.109-.435-.028-.755-.119-.967l-.013-.031.011.01c.07.07.183.07.252 0 .07-.07.07-.182 0-.252-.104-.104-.306-.268-.49-.19-.078.031-.17.113-.17.316 0 .093.038.183.082.287.08.188.18.422.1.74-.046.189-.278.417-.583.644-.033-.039-.08-.065-.135-.065-.098 0-.178.08-.178.178l.003.101c-.381.248-.813.476-1.147.628-.09.041-.13.147-.089.236.03.066.095.105.163.105.025 0 .05-.005.074-.016.1-.046.576-.267 1.065-.57.09.305.28.586.644.586.428 0 .913-.35 1.194-.872.033.06.072.117.119.17.448.518 1.325.524 1.362.524.096 0 .175-.076.179-.172.003-.096-.07-.178-.166-.185-.001 0-.143-.015-.222-.108-.048-.055-.067-.132-.059-.234.018-.22.727-.384 1.352-.394.075 0 .14-.048.166-.118l.178-.502c.02-.054.01-.115-.023-.162-.033-.048-.087-.076-.145-.076zm-.783-.852l.014-.001c.017 0 .044.008.08.056.006.01.028.04.023.054-.02.05-.144.134-.4.21.112-.22.223-.306.283-.319zM7.308 5.128c-.181-.06-.366-.152-.493-.3-.14-.163-.193-.368-.159-.628.005-.014.017-.04.037-.076.252-.023.923.076.969.268-.207.106-.36.254-.377.465-.009.106.002.196.023.27zM11.11 1.07L10.93.537c-.028-.086-.118-.138-.206-.118-.09.019-.15.101-.14.192.123 1.23.355 3.63.355 3.906 0 .247-.44.733-1.15 1.088-.087.045-.123.152-.08.24.032.062.095.098.16.098.027 0 .055-.006.08-.018.649-.325 1.347-.904 1.347-1.408 0-.264-.182-2.16-.286-3.225.084-.036.128-.131.099-.22zM12.598 2.68c.034.034.08.052.126.052.03 0 .06-.007.088-.023.07-.04.104-.121.085-.2-.032-.125-.043-.281-.026-.345.09.002.172-.061.185-.153.014-.098-.053-.188-.15-.202-.119-.016-.222.018-.295.099-.047.052-.074.12-.09.191l-.206-.206c-.07-.07-.183-.07-.252 0-.07.07-.07.182 0 .252l.535.535zM12.999 2.866l-.669.48c-.08.057-.098.168-.041.248.035.049.09.075.145.075.036 0 .072-.011.104-.034l.669-.48c.08-.057.098-.168.04-.248-.057-.08-.168-.099-.248-.041zM12.94 3.537c-.056.072-.048.174.015.236.008.013.043.081.036.257-.003.098.074.181.172.184h.007c.095 0 .174-.075.178-.171.013-.364-.106-.497-.158-.538-.078-.06-.19-.046-.25.032z" transform="translate(2 2) translate(5.176 3.588)"/>
            <path d="M14.496 4.85c.099 0 .178-.08.178-.178 0-.263-.013-.557-.035-.863.177.29.324.557.418.777.029.068.094.108.164.108.023 0 .047-.005.07-.015.09-.038.132-.143.093-.234-.163-.38-.468-.885-.815-1.406-.07-.655-.162-1.296-.233-1.756.038.003.077-.006.112-.028.056-.036.082-.099.078-.161.005.017.01.035.02.05.001.003.116.192.065.438-.02.096.042.19.139.21.012.003.024.004.036.004.083 0 .157-.058.174-.142.081-.39-.105-.688-.113-.7-.053-.084-.163-.108-.246-.055-.057.036-.083.098-.08.161-.004-.018-.01-.035-.02-.052l-.3-.468c-.047-.071-.137-.1-.216-.07-.079.032-.125.114-.11.198.002.014.138.796.259 1.74-.137-.193-.273-.382-.406-.562-.022-.27-.043-.52-.062-.726l.03-.011c.087-.045.123-.152.079-.24l-.178-.356c-.039-.077-.127-.116-.21-.092-.082.024-.136.103-.127.189.02.213.043.448.065.696-.113-.149-.218-.285-.307-.4.018-.015.033-.034.043-.056.045-.088.009-.195-.08-.239l-.356-.178c-.075-.038-.166-.018-.218.047-.053.065-.053.158 0 .224.009.012.448.562.973 1.273.091 1.178.152 2.404.066 2.66-.015.048-.043.103-.069.105-.107.015-.365-.226-.494-.484-.074-.149-.181-.165-.239-.162-.191.012-.266.223-.402.606-.097.274-.219.615-.354.754-.074-.09-.17-.391-.222-.702.025.069.089.119.166.119.099 0 .178-.08.178-.179 0-.266-.186-2.291-.29-3.401.087-.035.133-.132.103-.222l-.178-.535c-.03-.086-.117-.137-.207-.118-.088.019-.149.101-.14.191.121 1.272.348 3.73.355 4.07l-.001-.01c-.014-.098-.105-.164-.202-.151-.098.014-.165.104-.151.201.052.365.185.992.491 1.094.025.008.057.015.095.015.07 0 .16-.025.251-.116.195-.194.326-.565.442-.891.026-.074.057-.161.087-.236.163.239.449.536.738.513.102-.007.287-.062.382-.347.094-.285.057-1.277-.007-2.227.15.21.3.426.444.64.056.533.096 1.068.096 1.508 0 .098.08.178.178.178z" transform="translate(2 2) translate(5.176 3.588)"/>
            <path d="M15.85 3.912c-.127-.941-.303-2.031-.414-2.7.05.012.105.002.15-.032.077-.06.092-.172.033-.25l-.324-.424c-.05-.065-.137-.088-.213-.055-.075.033-.118.113-.104.194.003.018.321 1.849.518 3.314.075.56-.035 1.06-.294 1.339-.166.178-.387.259-.654.243-.098-.005-.183.069-.19.167-.005.098.07.183.168.19l.089.002c.336 0 .628-.123.848-.36.336-.36.477-.954.386-1.628zM13.888 5.088c-.066.07-.061.183.008.25.01.01.022.028.022.037 0 .005-.007.02-.027.04-.07.07-.07.183 0 .252.035.035.08.052.126.052.045 0 .091-.017.126-.052.113-.113.134-.228.131-.304-.005-.165-.117-.27-.14-.29-.073-.064-.181-.056-.246.015zM13.259 8.999H12.01V8.82c0-.098-.08-.178-.178-.178-.098 0-.178.08-.178.178V9H2.202c.356.356 1.07.535 1.605.535h7.847v.356c0 .099.08.179.178.179h1.427c.295 0 .535-.24.535-.535 0-.295-.24-.535-.535-.535zm0 .713H12.01v-.178h1.427l-.032-.096c.019.028.032.06.032.096 0 .098-.08.178-.178.178z" transform="translate(2 2) translate(5.176 3.588)"/>
        </g>
    </g>
</svg>
